<svg height="512" viewBox="0 0 60 59" width="512" xmlns="http://www.w3.org/2000/svg"><g id="Page-1" fill="none" fill-rule="evenodd"><g id="086---Culture-Podcast" fill-rule="nonzero"><path id="Shape" d="m51 30c.0018858 9.5082688-6.3850868 17.8314335-15.57 20.29l-3.64 7.6c-.338327.678829-1.0315318 1.1078677-1.79 1.1078677s-1.451673-.4290387-1.79-1.1078677l-3.64-7.6c-10.5184568-2.8155225-17.14009799-13.2037619-15.25182605-23.9275452 1.88827195-10.7237833 11.66001185-18.22543305 22.50754335-17.2787762 10.8475316.9466568 19.172123 10.0275614 19.1742827 20.9163214z" fill="#e57e25"/><path id="Shape" d="m47.27 18.06c-8.6295306-5.2989596-19.8353042-3.5029165-26.3764947 4.2275814-6.5411906 7.7304979-6.4577119 19.0789851.1964947 26.7124186-7.9840288-3.7600491-12.76535419-12.1106817-11.96647328-20.8995654.79888091-8.7888836 7.00749558-16.1405664 15.53862508-18.3994414 8.5311294-2.25887502 17.5643237 1.057077 22.6078482 8.2990068z" fill="#f29c1f"/><path id="Shape" d="m41.28 4.28c-.1344044.00347623-.2678183-.02389072-.39-.08-3.4454024-1.45728395-7.1490851-2.20550267-10.89-2.2-1.2909985.00127091-2.5804927.08812803-3.86.26-.2641226.03998174-.5332626-.02737414-.7474179-.18705133-.2141553-.15967718-.3555214-.3984004-.3925821-.66294867-.0369393-.26407515.033117-.53196674.1946029-.74415177.161486-.21218503.4010262-.35108881.6653971-.38584823 1.3724524-.18316727 2.7553828-.2766988 4.14-.28 4.0093654-.00855681 7.9790102.79421628 11.67 2.36.4368475.18609386.6825935.65373112.5880733 1.11906176-.0945203.46533063-.5032408.80002938-.9780733.80093824z" fill="#fac176"/><path id="Shape" d="m18.72 4.28c-.4748325-.00090886-.883553-.33560761-.9780733-.80093824-.0945202-.46533064.1512258-.9329679.5880733-1.11906176 1.1053221-.46656577 2.2373034-.86726712 3.39-1.2.5301934-.15463971 1.0853602.14980666 1.24.68000001.1546397.53019335-.1498067 1.08536025-.68 1.23999999-1.0768882.31342224-2.1352365.68734971-3.17 1.12-.1221817.05610928-.2555956.08347623-.39.08z" fill="#fac176"/><path id="Shape" d="m39.73 8c-.1332243.00115024-.2654917-.02259006-.39-.07-5.9736866-2.51015765-12.7063134-2.51015765-18.68 0-.5329548.21539104-1.1396089-.04204523-1.355-.57500001-.215391-.53295477.0420452-1.13960893.575-1.35499999 6.4724808-2.72017719 13.7675192-2.72017719 20.24 0 .5077826.21570508.7449432.80189442.53 1.31-.1305175.40096574-.498528.67697365-.92.69z" fill="#f18d46"/><path id="Shape" d="m1.29 35c-.50193203.0049401-.92975042-.3629837-1-.86-.19211854-1.3716511-.289017-2.7549602-.29-4.14-.00607912-4.0143593.80363665-7.9880905 2.38-11.68.11895026-.355425.42666292-.6144942.79715855-.6711431.37049562-.0566488.74156291.0986348.96128465.4022768s.25120363.7046567.0815568 1.0388663c-1.46678048 3.4501753-2.22186632 7.16098-2.22 10.91.00065046 1.2910196.08751035 2.580555.26 3.86.08393996.5435979-.28689372 1.0529357-.83 1.14z" fill="#fac176"/><path id="Shape" d="m3.3 42.26c-.4012802-.000327-.7635008-.2404951-.92-.61-.46974469-1.1040872-.87051503-2.2362634-1.2-3.39-.12043787-.3496889-.03803401-.7372986.21424262-1.0077502.25227664-.2704517.63322686-.3795781.99043633-.2837188s.63234247.3810496.71532105.741469c.31343515 1.0736141.68736609 2.1286336 1.12 3.16.21494317.5081056-.02221741 1.0942949-.53 1.31-.12398634.050383-.25619111.0775019-.39.08z" fill="#fac176"/><path id="Shape" d="m7 40.71c-.4012802-.000327-.7635008-.2404951-.92-.61-2.72017719-6.4724808-2.72017719-13.7675192 0-20.24.21570508-.5077826.80189442-.7449432 1.31-.53.50778259.2157051.74494317.8018944.53 1.31-2.50677448 5.974368-2.50677448 12.705632 0 18.68.21494317.5081056-.02221741 1.0942949-.53 1.31-.12218173.0561093-.2555956.0834762-.39.08z" fill="#f18d46"/><path id="Shape" d="m58.71 35h-.14c-.5467163-.0773971-.9272331-.5832605-.85-1.13.1796246-1.2823026.2731672-2.5751957.28-3.87.0055027-3.7409149-.7427161-7.4445976-2.2-10.89-.1696468-.3342096-.1381649-.7352243.0815568-1.0388663s.590789-.4589256.9612847-.4022768c.3704956.0566489.6782082.3157181.7971585.6711431 1.5668484 3.6871513 2.3696943 7.6537543 2.36 11.66.0023304 1.3848084-.0912266 2.7681165-.28 4.14-.0707148.5008477-.5042842.8700256-1.01.86z" fill="#fac176"/><path id="Shape" d="m56.7 42.26c-.1338089-.0024981-.2660137-.029617-.39-.08-.5077826-.2157051-.7449432-.8018944-.53-1.31.4326339-1.0313664.8065649-2.0863859 1.12-3.16.0829786-.3604194.3581116-.6456097.715321-.741469.3572095-.0958593.7381597.0132671.9904364.2837188.2522766.2704516.3346805.6580613.2142426 1.0077502-.329485 1.1537366-.7302553 2.2859128-1.2 3.39-.1564992.3695049-.5187198.609673-.92.61z" fill="#fac176"/><path id="Shape" d="m53 40.71c-.1344044.0034762-.2678183-.0238907-.39-.08-.5077826-.2157051-.7449432-.8018944-.53-1.31 2.5067745-5.974368 2.5067745-12.705632 0-18.68-.2149432-.5081056.0222174-1.0942949.53-1.31.5081056-.2149432 1.0942949.0222174 1.31.53 2.7201772 6.4724808 2.7201772 13.7675192 0 20.24-.1564992.3695049-.5187198.609673-.92.61z" fill="#f18d46"/><path id="Shape" d="m37 43.41c-1.6194717 2.2535821-4.2248746 3.5896521-7 3.5896521s-5.3805283-1.33607-7-3.5896521c1.2895979-2.6952706 4.0121-4.4107314 7-4.4107314s5.7104021 1.7154608 7 4.4107314z" fill="#e64c3c"/><circle id="Oval" cx="21" cy="22" fill="#fdd7ad" r="5"/><path id="Shape" d="m27 30c-1.2590292.9442719-2 2.4262135-2 4-3.801916 1.9983222-8.4950935.8890257-11-2.6 1.292673-2.6910912 4.01454-4.401979 7-4.4 2.3667116-.0258674 4.600667 1.0911102 6 3z" fill="#3b97d3"/><circle id="Oval" cx="39" cy="22" fill="#fdd7ad" r="5"/><path id="Shape" d="m35 34c0 2.7614237-2.2385763 5-5 5s-5-2.2385763-5-5 2.2385763-5 5-5 5 2.2385763 5 5z" fill="#fdd7ad"/><path id="Shape" d="m46 31.41c-2.507851 3.4854853-7.2004759 4.5903852-11 2.59 0-1.5737865-.7409708-3.0557281-2-4 1.399333-1.9088898 3.6332884-3.0258674 6-3 2.9877336-.0001348 5.7101923 1.7150143 7 4.41z" fill="#f0c419"/><g fill="#fff"><path id="Shape" d="m20.58 41.36c-.2478358-.000647-.4866017-.0933024-.67-.26-.7410593-.6913758-1.4110648-1.455182-2-2.28-.3202702-.4452621-.2221183-1.0654037.22-1.39.2146346-.1570297.4829786-.2220956.7456989-.180811.2627202.0412846.4981742.1855188.6543011.400811.5178917.7271625 1.1111871 1.3975527 1.77 2 .3552889.3769092.3639678.9627314.02 1.35-.1835732.2206361-.4531002.3517573-.74.36z"/><path id="Shape" d="m39.42 41.36c-.2821782-.000667-.5509408-.1205206-.74-.33-.37163-.4063531-.3448073-1.0366868.06-1.41.6588129-.6024473 1.2521083-1.2728375 1.77-2 .1561269-.2152922.3915809-.3595264.6543011-.400811.2627203-.0412846.5310643.0237813.7456989.180811.4421183.3245963.5402702.9447379.22 1.39-.5889352.824818-1.2589407 1.5886242-2 2.28-.1887188.1871865-.444197.2915368-.71.29z"/><path id="Shape" d="m32 17.14h-.14c-1.2207762-.1700079-2.4592238-.1700079-3.68 0-.5522847.0773199-1.0626801-.3077153-1.14-.86s.3077153-1.0626801.86-1.14c1.4062613-.1999508 2.8337387-.1999508 4.24 0 .5522847.03866.9686599.5177153.93 1.07-.03866.5522847-.5177153.9686599-1.07.93z"/></g></g></g></svg>