<svg width="27" height="27" viewBox="0 0 27 27" fill="none" xmlns="http://www.w3.org/2000/svg">
<path d="M13.906 1C14.8613 1 15.7262 1.53053 16.2038 2.31369C16.4362 2.69264 16.5911 3.16001 16.5524 3.65264C16.5265 4.03159 16.6427 4.41054 16.8493 4.76423C17.5076 5.83791 18.9663 6.24213 20.1023 5.63581C21.3803 4.90317 22.9939 5.34528 23.7298 6.59581L24.5947 8.08634C25.3434 9.33688 24.9303 10.9411 23.6394 11.6611C22.5421 12.3053 22.1549 13.7327 22.8132 14.819C23.0198 15.1601 23.2521 15.4506 23.6136 15.6274C24.0654 15.8674 24.4139 16.2464 24.6592 16.6253C25.1368 17.4085 25.0981 18.3685 24.6334 19.2148L23.7298 20.7306C23.2521 21.539 22.3614 22.0443 21.4449 22.0443C20.9931 22.0443 20.4896 21.918 20.0765 21.6653C19.7409 21.4506 19.3536 21.3748 18.9405 21.3748C17.6625 21.3748 16.5911 22.4232 16.5524 23.6738C16.5524 25.1264 15.3647 26.2633 13.8802 26.2633H12.1246C10.6271 26.2633 9.43951 25.1264 9.43951 23.6738C9.41369 22.4232 8.34225 21.3748 7.06426 21.3748C6.63826 21.3748 6.25099 21.4506 5.92827 21.6653C5.51518 21.918 4.99882 22.0443 4.55991 22.0443C3.63047 22.0443 2.73975 21.539 2.26212 20.7306L1.37139 19.2148C0.893762 18.3938 0.867944 17.4085 1.34558 16.6253C1.55212 16.2464 1.93939 15.8674 2.3783 15.6274C2.73975 15.4506 2.97211 15.1601 3.19156 14.819C3.83701 13.7327 3.44974 12.3053 2.35248 11.6611C1.07449 10.9411 0.661401 9.33688 1.39721 8.08634L2.26212 6.59581C3.01084 5.34528 4.61155 4.90317 5.90245 5.63581C7.02553 6.24213 8.48425 5.83791 9.14261 4.76423C9.34915 4.41054 9.46533 4.03159 9.43951 3.65264C9.41369 3.16001 9.55569 2.69264 9.80096 2.31369C10.2786 1.53053 11.1435 1.02526 12.0859 1H13.906ZM13.0153 10.0695C10.9886 10.0695 9.34915 11.6611 9.34915 13.6443C9.34915 15.6274 10.9886 17.2064 13.0153 17.2064C15.042 17.2064 16.6427 15.6274 16.6427 13.6443C16.6427 11.6611 15.042 10.0695 13.0153 10.0695Z" fill="#7856FF"/>
<rect x="7.00012" y="7.63162" width="12" height="12" fill="#7856FF"/>
<path d="M16.5001 12.7656C17.1668 13.1505 17.1668 14.1127 16.5001 14.4976L12.0001 17.0957C11.3335 17.4806 10.5001 16.9995 10.5001 16.2297L10.5001 11.0335C10.5001 10.2637 11.3335 9.78262 12.0001 10.1675L16.5001 12.7656Z" fill="#050308"/>
</svg>
