<svg width="992" height="426" viewBox="0 0 992 426" fill="none" xmlns="http://www.w3.org/2000/svg">
<g clip-path="url(#clip0)">
<mask id="path-1-inside-1" fill="white">
<path fill-rule="evenodd" clip-rule="evenodd" d="M336 130C336 102.386 358.386 80 386 80H434H557H605C632.614 80 655 102.386 655 130V620C655 647.614 632.614 670 605 670H386C358.386 670 336 647.614 336 620V130ZM434 96V110C434 117.18 439.82 123 447 123H544C551.18 123 557 117.18 557 110V96H602C621.882 96 638 112.118 638 132V586C638 605.882 621.882 622 602 622H389C369.118 622 353 605.882 353 586V132C353 112.118 369.118 96 389 96H434Z"/>
</mask>
<path fill-rule="evenodd" clip-rule="evenodd" d="M336 130C336 102.386 358.386 80 386 80H434H557H605C632.614 80 655 102.386 655 130V620C655 647.614 632.614 670 605 670H386C358.386 670 336 647.614 336 620V130ZM434 96V110C434 117.18 439.82 123 447 123H544C551.18 123 557 117.18 557 110V96H602C621.882 96 638 112.118 638 132V586C638 605.882 621.882 622 602 622H389C369.118 622 353 605.882 353 586V132C353 112.118 369.118 96 389 96H434Z" fill="white" fill-opacity="0.15"/>
<path d="M434 96H435V95H434V96ZM557 96V95H556V96H557ZM386 79C357.833 79 335 101.833 335 130H337C337 102.938 358.938 81 386 81V79ZM434 79H386V81H434V79ZM434 81H557V79H434V81ZM605 79H557V81H605V79ZM656 130C656 101.833 633.167 79 605 79V81C632.062 81 654 102.938 654 130H656ZM656 620V130H654V620H656ZM605 671C633.167 671 656 648.167 656 620H654C654 647.062 632.062 669 605 669V671ZM386 671H605V669H386V671ZM335 620C335 648.167 357.833 671 386 671V669C358.938 669 337 647.062 337 620H335ZM335 130V620H337V130H335ZM435 110V96H433V110H435ZM447 122C440.373 122 435 116.627 435 110H433C433 117.732 439.268 124 447 124V122ZM544 122H447V124H544V122ZM556 110C556 116.627 550.627 122 544 122V124C551.732 124 558 117.732 558 110H556ZM556 96V110H558V96H556ZM602 95H557V97H602V95ZM639 132C639 111.565 622.435 95 602 95V97C621.33 97 637 112.67 637 132H639ZM639 586V132H637V586H639ZM602 623C622.435 623 639 606.435 639 586H637C637 605.33 621.33 621 602 621V623ZM389 623H602V621H389V623ZM352 586C352 606.435 368.565 623 389 623V621C369.67 621 354 605.33 354 586H352ZM352 132V586H354V132H352ZM389 95C368.565 95 352 111.565 352 132H354C354 112.67 369.67 97 389 97V95ZM434 95H389V97H434V95Z" fill="white" fill-opacity="0.25" mask="url(#path-1-inside-1)"/>
<path d="M465.096 201.432C464.915 201.133 464.664 200.904 464.344 200.744C464.035 200.584 463.667 200.504 463.24 200.504C462.451 200.504 461.827 200.76 461.368 201.272C460.92 201.784 460.696 202.472 460.696 203.336C460.696 204.307 460.936 205.048 461.416 205.56C461.907 206.061 462.616 206.312 463.544 206.312C464.643 206.312 465.427 205.816 465.896 204.824H462.744V202.568H468.6V205.608C468.355 206.205 467.992 206.765 467.512 207.288C467.043 207.811 466.445 208.243 465.72 208.584C464.995 208.915 464.168 209.08 463.24 209.08C462.109 209.08 461.107 208.84 460.232 208.36C459.368 207.869 458.696 207.192 458.216 206.328C457.747 205.453 457.512 204.456 457.512 203.336C457.512 202.227 457.747 201.24 458.216 200.376C458.696 199.501 459.368 198.824 460.232 198.344C461.096 197.853 462.093 197.608 463.224 197.608C464.643 197.608 465.816 197.949 466.744 198.632C467.672 199.315 468.248 200.248 468.472 201.432H465.096ZM478.581 204.408C478.581 204.653 478.565 204.899 478.533 205.144H472.597C472.629 205.635 472.763 206.003 472.997 206.248C473.243 206.483 473.552 206.6 473.925 206.6C474.448 206.6 474.821 206.365 475.045 205.896H478.389C478.251 206.515 477.979 207.069 477.573 207.56C477.179 208.04 476.677 208.419 476.069 208.696C475.461 208.973 474.789 209.112 474.053 209.112C473.168 209.112 472.379 208.925 471.685 208.552C471.003 208.179 470.464 207.645 470.069 206.952C469.685 206.259 469.493 205.443 469.493 204.504C469.493 203.565 469.685 202.755 470.069 202.072C470.453 201.379 470.987 200.845 471.669 200.472C472.363 200.099 473.157 199.912 474.053 199.912C474.939 199.912 475.723 200.093 476.405 200.456C477.088 200.819 477.621 201.341 478.005 202.024C478.389 202.696 478.581 203.491 478.581 204.408ZM475.381 203.624C475.381 203.24 475.253 202.941 474.997 202.728C474.741 202.504 474.421 202.392 474.037 202.392C473.653 202.392 473.339 202.499 473.093 202.712C472.848 202.915 472.688 203.219 472.613 203.624H475.381ZM479.353 204.504C479.353 203.576 479.518 202.765 479.849 202.072C480.19 201.379 480.649 200.845 481.225 200.472C481.811 200.099 482.462 199.912 483.177 199.912C483.795 199.912 484.329 200.035 484.777 200.28C485.225 200.525 485.571 200.856 485.817 201.272V200.024H488.953V209H485.817V207.752C485.571 208.168 485.219 208.499 484.761 208.744C484.313 208.989 483.785 209.112 483.177 209.112C482.462 209.112 481.811 208.925 481.225 208.552C480.649 208.179 480.19 207.645 479.849 206.952C479.518 206.248 479.353 205.432 479.353 204.504ZM485.817 204.504C485.817 203.928 485.657 203.475 485.337 203.144C485.027 202.813 484.643 202.648 484.185 202.648C483.715 202.648 483.326 202.813 483.017 203.144C482.707 203.464 482.553 203.917 482.553 204.504C482.553 205.08 482.707 205.539 483.017 205.88C483.326 206.211 483.715 206.376 484.185 206.376C484.643 206.376 485.027 206.211 485.337 205.88C485.657 205.549 485.817 205.091 485.817 204.504ZM493.876 201.608C494.228 201.096 494.654 200.691 495.156 200.392C495.657 200.093 496.196 199.944 496.772 199.944V203.288H495.892C495.209 203.288 494.702 203.421 494.372 203.688C494.041 203.955 493.876 204.419 493.876 205.08V209H490.74V200.024H493.876V201.608ZM506.808 201.48C506.808 202.163 506.648 202.787 506.328 203.352C506.019 203.907 505.544 204.355 504.904 204.696C504.275 205.027 503.501 205.192 502.584 205.192H501.032V209H497.896V197.72H502.584C503.491 197.72 504.259 197.88 504.888 198.2C505.528 198.52 506.008 198.963 506.328 199.528C506.648 200.093 506.808 200.744 506.808 201.48ZM502.28 202.696C503.165 202.696 503.608 202.291 503.608 201.48C503.608 200.659 503.165 200.248 502.28 200.248H501.032V202.696H502.28ZM511.204 197.16V209H508.068V197.16H511.204ZM512.478 204.504C512.478 203.576 512.643 202.765 512.974 202.072C513.315 201.379 513.774 200.845 514.35 200.472C514.936 200.099 515.587 199.912 516.302 199.912C516.92 199.912 517.454 200.035 517.902 200.28C518.35 200.525 518.696 200.856 518.942 201.272V200.024H522.078V209H518.942V207.752C518.696 208.168 518.344 208.499 517.886 208.744C517.438 208.989 516.91 209.112 516.302 209.112C515.587 209.112 514.936 208.925 514.35 208.552C513.774 208.179 513.315 207.645 512.974 206.952C512.643 206.248 512.478 205.432 512.478 204.504ZM518.942 204.504C518.942 203.928 518.782 203.475 518.462 203.144C518.152 202.813 517.768 202.648 517.31 202.648C516.84 202.648 516.451 202.813 516.142 203.144C515.832 203.464 515.678 203.917 515.678 204.504C515.678 205.08 515.832 205.539 516.142 205.88C516.451 206.211 516.84 206.376 517.31 206.376C517.768 206.376 518.152 206.211 518.462 205.88C518.782 205.549 518.942 205.091 518.942 204.504ZM533.529 200.024L527.833 213.272H524.425L526.569 208.616L522.889 200.024H526.377L528.265 205.112L530.089 200.024H533.529Z" fill="white"/>
<path d="M497.167 156C498.068 156 498.883 156.5 499.333 157.238C499.552 157.596 499.698 158.036 499.662 158.501C499.638 158.858 499.747 159.215 499.942 159.549C500.563 160.561 501.938 160.942 503.009 160.37C504.214 159.68 505.735 160.097 506.428 161.275L507.244 162.681C507.95 163.86 507.56 165.372 506.343 166.051C505.309 166.658 504.944 168.004 505.564 169.028C505.759 169.349 505.978 169.623 506.319 169.79C506.745 170.016 507.073 170.374 507.305 170.731C507.755 171.469 507.718 172.374 507.28 173.172L506.428 174.601C505.978 175.363 505.138 175.839 504.274 175.839C503.848 175.839 503.374 175.72 502.984 175.482C502.668 175.28 502.303 175.208 501.913 175.208C500.709 175.208 499.698 176.197 499.662 177.376C499.662 178.745 498.542 179.817 497.143 179.817H495.488C494.076 179.817 492.956 178.745 492.956 177.376C492.932 176.197 491.922 175.208 490.717 175.208C490.315 175.208 489.95 175.28 489.646 175.482C489.257 175.72 488.77 175.839 488.356 175.839C487.48 175.839 486.64 175.363 486.19 174.601L485.35 173.172C484.9 172.398 484.876 171.469 485.326 170.731C485.521 170.374 485.886 170.016 486.299 169.79C486.64 169.623 486.859 169.349 487.066 169.028C487.675 168.004 487.309 166.658 486.275 166.051C485.07 165.372 484.681 163.86 485.374 162.681L486.19 161.275C486.896 160.097 488.405 159.68 489.622 160.37C490.681 160.942 492.056 160.561 492.676 159.549C492.871 159.215 492.981 158.858 492.956 158.501C492.932 158.036 493.066 157.596 493.297 157.238C493.747 156.5 494.563 156.024 495.451 156H497.167ZM496.327 164.55C494.417 164.55 492.871 166.051 492.871 167.92C492.871 169.79 494.417 171.279 496.327 171.279C498.238 171.279 499.747 169.79 499.747 167.92C499.747 166.051 498.238 164.55 496.327 164.55Z" fill="#0D0917"/>
<rect x="381" y="275" width="166" height="50" rx="8" fill="#F03800"/>
<rect x="561" y="275" width="50" height="50" rx="8" fill="#FFC34D"/>
<rect x="381" y="343" width="65" height="65" rx="8" fill="white" fill-opacity="0.14"/>
<rect x="546" y="343" width="65" height="65" rx="8" fill="white" fill-opacity="0.14"/>
<rect x="463" y="343" width="65" height="65" rx="8" fill="white" fill-opacity="0.14"/>
<rect x="492" y="164" width="10" height="9" fill="#0D0917"/>
<path d="M499.688 167.158C500.301 167.552 500.301 168.448 499.688 168.842L495.79 171.342C495.124 171.769 494.25 171.291 494.25 170.501L494.25 165.499C494.25 164.709 495.124 164.231 495.79 164.658L499.688 167.158Z" fill="#5644D2"/>
</g>
<defs>
<clipPath id="clip0">
<rect width="992" height="426" fill="white"/>
</clipPath>
</defs>
</svg>
