<svg width="992" height="426" viewBox="0 0 992 426" fill="none" xmlns="http://www.w3.org/2000/svg">
<g clip-path="url(#clip0)">
<mask id="path-1-inside-1" fill="white">
<path fill-rule="evenodd" clip-rule="evenodd" d="M176 80C148.386 80 126 102.386 126 130V620C126 647.614 148.386 670 176 670H815C842.614 670 865 647.614 865 620V130C865 102.386 842.614 80 815 80H176ZM178 96C158.118 96 142 112.118 142 132V586C142 605.882 158.118 622 178 622H813C832.882 622 849 605.882 849 586V132C849 112.118 832.882 96 813 96H178Z"/>
</mask>
<path fill-rule="evenodd" clip-rule="evenodd" d="M176 80C148.386 80 126 102.386 126 130V620C126 647.614 148.386 670 176 670H815C842.614 670 865 647.614 865 620V130C865 102.386 842.614 80 815 80H176ZM178 96C158.118 96 142 112.118 142 132V586C142 605.882 158.118 622 178 622H813C832.882 622 849 605.882 849 586V132C849 112.118 832.882 96 813 96H178Z" fill="white" fill-opacity="0.15"/>
<path d="M127 130C127 102.938 148.938 81 176 81V79C147.833 79 125 101.833 125 130H127ZM127 620V130H125V620H127ZM176 669C148.938 669 127 647.062 127 620H125C125 648.167 147.833 671 176 671V669ZM815 669H176V671H815V669ZM864 620C864 647.062 842.062 669 815 669V671C843.167 671 866 648.167 866 620H864ZM864 130V620H866V130H864ZM815 81C842.062 81 864 102.938 864 130H866C866 101.833 843.166 79 815 79V81ZM176 81H815V79H176V81ZM143 132C143 112.67 158.67 97 178 97V95C157.565 95 141 111.565 141 132H143ZM143 586V132H141V586H143ZM178 621C158.67 621 143 605.33 143 586H141C141 606.435 157.565 623 178 623V621ZM813 621H178V623H813V621ZM848 586C848 605.33 832.33 621 813 621V623C833.435 623 850 606.435 850 586H848ZM848 132V586H850V132H848ZM813 97C832.33 97 848 112.67 848 132H850C850 111.565 833.435 95 813 95V97ZM178 97H813V95H178V97Z" fill="white" fill-opacity="0.25" mask="url(#path-1-inside-1)"/>
<rect x="171" y="174" width="128" height="301" rx="8" fill="white" fill-opacity="0.14"/>
<rect x="323" y="174" width="497" height="183" rx="8" fill="white" fill-opacity="0.14"/>
<path d="M481.096 130.432C480.915 130.133 480.664 129.904 480.344 129.744C480.035 129.584 479.667 129.504 479.24 129.504C478.451 129.504 477.827 129.76 477.368 130.272C476.92 130.784 476.696 131.472 476.696 132.336C476.696 133.307 476.936 134.048 477.416 134.56C477.907 135.061 478.616 135.312 479.544 135.312C480.643 135.312 481.427 134.816 481.896 133.824H478.744V131.568H484.6V134.608C484.355 135.205 483.992 135.765 483.512 136.288C483.043 136.811 482.445 137.243 481.72 137.584C480.995 137.915 480.168 138.08 479.24 138.08C478.109 138.08 477.107 137.84 476.232 137.36C475.368 136.869 474.696 136.192 474.216 135.328C473.747 134.453 473.512 133.456 473.512 132.336C473.512 131.227 473.747 130.24 474.216 129.376C474.696 128.501 475.368 127.824 476.232 127.344C477.096 126.853 478.093 126.608 479.224 126.608C480.643 126.608 481.816 126.949 482.744 127.632C483.672 128.315 484.248 129.248 484.472 130.432H481.096ZM494.581 133.408C494.581 133.653 494.565 133.899 494.533 134.144H488.597C488.629 134.635 488.763 135.003 488.997 135.248C489.243 135.483 489.552 135.6 489.925 135.6C490.448 135.6 490.821 135.365 491.045 134.896H494.389C494.251 135.515 493.979 136.069 493.573 136.56C493.179 137.04 492.677 137.419 492.069 137.696C491.461 137.973 490.789 138.112 490.053 138.112C489.168 138.112 488.379 137.925 487.685 137.552C487.003 137.179 486.464 136.645 486.069 135.952C485.685 135.259 485.493 134.443 485.493 133.504C485.493 132.565 485.685 131.755 486.069 131.072C486.453 130.379 486.987 129.845 487.669 129.472C488.363 129.099 489.157 128.912 490.053 128.912C490.939 128.912 491.723 129.093 492.405 129.456C493.088 129.819 493.621 130.341 494.005 131.024C494.389 131.696 494.581 132.491 494.581 133.408ZM491.381 132.624C491.381 132.24 491.253 131.941 490.997 131.728C490.741 131.504 490.421 131.392 490.037 131.392C489.653 131.392 489.339 131.499 489.093 131.712C488.848 131.915 488.688 132.219 488.613 132.624H491.381ZM495.353 133.504C495.353 132.576 495.518 131.765 495.849 131.072C496.19 130.379 496.649 129.845 497.225 129.472C497.811 129.099 498.462 128.912 499.177 128.912C499.795 128.912 500.329 129.035 500.777 129.28C501.225 129.525 501.571 129.856 501.817 130.272V129.024H504.953V138H501.817V136.752C501.571 137.168 501.219 137.499 500.761 137.744C500.313 137.989 499.785 138.112 499.177 138.112C498.462 138.112 497.811 137.925 497.225 137.552C496.649 137.179 496.19 136.645 495.849 135.952C495.518 135.248 495.353 134.432 495.353 133.504ZM501.817 133.504C501.817 132.928 501.657 132.475 501.337 132.144C501.027 131.813 500.643 131.648 500.185 131.648C499.715 131.648 499.326 131.813 499.017 132.144C498.707 132.464 498.553 132.917 498.553 133.504C498.553 134.08 498.707 134.539 499.017 134.88C499.326 135.211 499.715 135.376 500.185 135.376C500.643 135.376 501.027 135.211 501.337 134.88C501.657 134.549 501.817 134.091 501.817 133.504ZM509.876 130.608C510.228 130.096 510.654 129.691 511.156 129.392C511.657 129.093 512.196 128.944 512.772 128.944V132.288H511.892C511.209 132.288 510.702 132.421 510.372 132.688C510.041 132.955 509.876 133.419 509.876 134.08V138H506.74V129.024H509.876V130.608ZM522.808 130.48C522.808 131.163 522.648 131.787 522.328 132.352C522.019 132.907 521.544 133.355 520.904 133.696C520.275 134.027 519.501 134.192 518.584 134.192H517.032V138H513.896V126.72H518.584C519.491 126.72 520.259 126.88 520.888 127.2C521.528 127.52 522.008 127.963 522.328 128.528C522.648 129.093 522.808 129.744 522.808 130.48ZM518.28 131.696C519.165 131.696 519.608 131.291 519.608 130.48C519.608 129.659 519.165 129.248 518.28 129.248H517.032V131.696H518.28ZM527.204 126.16V138H524.068V126.16H527.204ZM528.478 133.504C528.478 132.576 528.643 131.765 528.974 131.072C529.315 130.379 529.774 129.845 530.35 129.472C530.936 129.099 531.587 128.912 532.302 128.912C532.92 128.912 533.454 129.035 533.902 129.28C534.35 129.525 534.696 129.856 534.942 130.272V129.024H538.078V138H534.942V136.752C534.696 137.168 534.344 137.499 533.886 137.744C533.438 137.989 532.91 138.112 532.302 138.112C531.587 138.112 530.936 137.925 530.35 137.552C529.774 137.179 529.315 136.645 528.974 135.952C528.643 135.248 528.478 134.432 528.478 133.504ZM534.942 133.504C534.942 132.928 534.782 132.475 534.462 132.144C534.152 131.813 533.768 131.648 533.31 131.648C532.84 131.648 532.451 131.813 532.142 132.144C531.832 132.464 531.678 132.917 531.678 133.504C531.678 134.08 531.832 134.539 532.142 134.88C532.451 135.211 532.84 135.376 533.31 135.376C533.768 135.376 534.152 135.211 534.462 134.88C534.782 134.549 534.942 134.091 534.942 133.504ZM549.529 129.024L543.833 142.272H540.425L542.569 137.616L538.889 129.024H542.377L544.265 134.112L546.089 129.024H549.529Z" fill="white"/>
<path d="M451.167 121C452.068 121 452.883 121.5 453.333 122.238C453.552 122.596 453.698 123.036 453.662 123.501C453.638 123.858 453.747 124.215 453.942 124.549C454.563 125.561 455.938 125.942 457.009 125.37C458.214 124.68 459.735 125.097 460.428 126.275L461.244 127.681C461.95 128.86 461.56 130.372 460.343 131.051C459.309 131.658 458.944 133.004 459.564 134.028C459.759 134.349 459.978 134.623 460.319 134.79C460.745 135.016 461.073 135.374 461.305 135.731C461.755 136.469 461.718 137.374 461.28 138.172L460.428 139.601C459.978 140.363 459.138 140.839 458.274 140.839C457.848 140.839 457.374 140.72 456.984 140.482C456.668 140.28 456.303 140.208 455.913 140.208C454.709 140.208 453.698 141.197 453.662 142.376C453.662 143.745 452.542 144.817 451.143 144.817H449.488C448.076 144.817 446.956 143.745 446.956 142.376C446.932 141.197 445.922 140.208 444.717 140.208C444.315 140.208 443.95 140.28 443.646 140.482C443.257 140.72 442.77 140.839 442.356 140.839C441.48 140.839 440.64 140.363 440.19 139.601L439.35 138.172C438.9 137.398 438.876 136.469 439.326 135.731C439.521 135.374 439.886 135.016 440.299 134.79C440.64 134.623 440.859 134.349 441.066 134.028C441.675 133.004 441.309 131.658 440.275 131.051C439.07 130.372 438.681 128.86 439.374 127.681L440.19 126.275C440.896 125.097 442.405 124.68 443.622 125.37C444.681 125.942 446.056 125.561 446.676 124.549C446.871 124.215 446.981 123.858 446.956 123.501C446.932 123.036 447.066 122.596 447.297 122.238C447.747 121.5 448.563 121.024 449.451 121H451.167ZM450.327 129.55C448.417 129.55 446.871 131.051 446.871 132.92C446.871 134.79 448.417 136.279 450.327 136.279C452.238 136.279 453.747 134.79 453.747 132.92C453.747 131.051 452.238 129.55 450.327 129.55Z" fill="#0D0917"/>
<rect x="446" y="128" width="10" height="9" fill="#0D0917"/>
<path d="M453.688 132.158C454.301 132.552 454.301 133.448 453.688 133.842L449.79 136.342C449.124 136.769 448.25 136.291 448.25 135.501L448.25 130.499C448.25 129.709 449.124 129.231 449.79 129.658L453.688 132.158Z" fill="#5644D2"/>
<rect x="481" y="194" width="318" height="65" rx="4" fill="#FFC34D"/>
<rect x="343" y="194" width="124" height="65" rx="4" fill="#F03800"/>
</g>
<defs>
<clipPath id="clip0">
<rect width="992" height="426" fill="white"/>
</clipPath>
</defs>
</svg>
